
<svg width="744px" height="609px" viewBox="0 0 744 609" version="1.1" xmlns="http://www.w3.org/2000/svg" xmlns:xlink="http://www.w3.org/1999/xlink">
    <!-- Generator: Sketch 46.2 (44496) - http://www.bohemiancoding.com/sketch -->
    <desc>Created with Sketch.</desc>
    <style>
      #Fill-1 { fill: rgba(0,0,0,0.37); }
    </style>
    <defs></defs>
    <g id="Desktop" stroke="none" stroke-width="1" fill="none" fill-rule="evenodd" opacity="0.22">
        <g id="HOME" transform="translate(-202.000000, -42.000000)" fill="#000000">
            <g id="MARQUEE" transform="translate(0.000000, 42.000000)">
                <g id="RED-GRAD">
                    <g id="Page-1" style="mix-blend-mode: overlay;" transform="translate(202.000000, 0.608801)">
                        <path d="M731.455601,346.655598 C728.840451,344.557511 725.907107,343.145529 722.715231,342.548916 C703.832453,361.36209 680.783332,381.189505 660.329474,394.513846 C650.883113,400.788218 639.010529,403.920433 631.14519,403.920433 C613.057895,403.920433 605.182613,386.678338 602.825994,359.244117 C599.683836,322.403309 597.555919,278.273887 597.555919,210.081104 C597.555919,140.128314 581.676089,92.5783158 539.386222,88.8395455 C537.606329,88.6903925 535.796605,88.57107 533.917276,88.57107 C507.954699,88.57107 495.36618,101.905354 478.849963,135.604005 C464.690365,164.609305 442.665428,206.938946 401.757713,286.894935 C366.358718,355.873257 327.022082,417.016072 293.194166,459.345713 C283.777635,471.089032 276.329925,479.143297 269.329675,483.737212 C264.646268,486.809765 260.171676,488.351014 255.438552,488.351014 C242.094324,488.351014 232.339714,477.084985 229.088177,450.843988 C228.312581,444.60939 227.904896,437.539535 227.904896,429.554874 C227.904896,375.471971 248.358753,287.680474 283.757748,158.344876 C309.710382,64.2790068 298.702886,0.00397741518 242.064494,0.00397741518 C241.975002,0.00397741518 241.88551,0.00397741518 241.786075,0.00397741518 C241.666752,0.00397741518 241.54743,0.00397741518 241.428107,0.00397741518 L241.37839,0.0139209531 C228.561169,0.163074022 217.921584,4.81664979 207.679739,12.8709155 C197.596992,20.8058588 187.494357,37.9684053 178.067883,61.0274699 C167.458128,87.0099345 102.864906,216.564291 0.0686104119,283.295374 C-1.13455768,308.671283 13.2239111,334.037248 42.3385903,336.791608 C68.8281754,339.29738 87.6314057,328.14073 111.853864,311.863158 C110.04414,319.957198 108.363682,327.524231 106.842321,334.43499 C105.032597,342.608578 103.491349,349.658546 102.25835,355.34625 C100.418795,363.818144 99.245458,369.257259 98.8974342,370.768677 C95.5365183,386.210992 93.1301822,400.87771 91.5690467,414.78872 C77.0713684,544.353019 137.120394,608.280025 207.451038,608.280025 C219.2043,608.280025 230.848183,606.877986 242.422461,603.944642 C319.892565,584.286268 394.488987,495.410926 482.777661,290.812689 C481.445226,313.07627 481.306017,333.858264 482.260597,353.148728 C488.08751,470.412871 534.464171,505.593108 599.992086,505.593108 C649.550679,505.593108 695.967114,479.729966 719.56313,447.592451 C736.864886,424.861524 743.954629,399.773977 743.954629,380.175264 C743.954629,364.971595 739.132013,352.820591 731.455601,346.655598" id="Fill-1"></path>
                    </g>
                </g>
            </g>
        </g>
    </g>
</svg>